<svg width="57" height="37" fill="none" xmlns="http://www.w3.org/2000/svg"><path d="M3.747 12.697l-.356-.35-.357.35-1.39 1.37-.357.35.357.351 4.171 4.108.357.351.356-.35 1.39-1.37.357-.35-.356-.352-4.172-4.107zm7.681 7.532l-.357-.351-.356.35-1.39 1.37-.356.35.356.352 13.207 13.008.356.35.356-.35 1.39-1.37.356-.35-.356-.351-13.206-13.008z" fill="#9A95F1" stroke="#9A95F1"/><path d="M53.966 1.65l-.356-.352-.356.351L21.14 33.28l-.356.352.356.35 1.39 1.37.357.35.356-.35L55.356 3.72l.356-.352-.356-.35-1.39-1.37z" fill="#9A95F1" stroke="#9A95F1"/></svg>