<svg width="66" height="66" fill="none" xmlns="http://www.w3.org/2000/svg"><path d="M41.831 16.072h-3.984c0-6.719-5.444-12.12-12.217-12.12-6.773 0-12.217 5.401-12.217 12.12H9.429C9.429 7.246 16.733 0 25.629 0c8.898 0 16.202 7.246 16.202 16.072z" fill="#111"/><path d="M32.004 52.958H0V14.096h51.26v17.652h-3.984v-13.7H3.984v30.958h28.02v3.952z" fill="#111"/><path d="M27.622 32.276h-3.984v8.036h3.984v-8.036zm30.543 19.892H45.15v3.952h13.014v-3.952zm0-6.718H45.15v3.95h13.014v-3.95z" fill="#111"/><path d="M48.392 18.99L24.72 31.783l1.906 3.47L50.298 22.46l-1.906-3.47z" fill="#111"/><path d="M2.952 19.034l-1.906 3.47 23.672 12.794 1.906-3.47L2.952 19.034zM66 66H37.183V36.227H66V66zm-24.833-3.952h20.85V40.18h-20.85v21.868z" fill="#111"/></svg>