<svg width="63" height="66" fill="none" xmlns="http://www.w3.org/2000/svg"><path d="M63 66H6.52V22.952H63V66zm-52.407-4.074h48.334v-34.9H10.593v34.9z" fill="#111"/><path d="M52.41 24.99h-4.073c0-7.605-6.11-13.716-13.713-13.716-3.802 0-7.196 1.493-9.776 4.21l-2.987-2.852C25.256 9.1 29.736 7.2 34.624 7.2c9.911 0 17.786 8.012 17.786 17.79zM36.796 40.878h-4.073v15.888h4.073V40.878zM15.877 0l-3.801.005.02 15.889 3.802-.005L15.878 0z" fill="#111"/><path d="M15.885 12.079L0 12.098.005 15.9l15.885-.02-.005-3.803z" fill="#111"/></svg>