<svg width="67" height="66" fill="none" xmlns="http://www.w3.org/2000/svg"><path d="M4.07 64.642H0V0h66.616v23.765h-4.07V4.075H4.07v60.567zm60.868-31.866l-14.087 2.122.504 3.357 14.088-2.121-.505-3.358z" fill="#111"/><path d="M64.88 32.836l-3.354.506 2.12 14.1L67 46.938l-2.12-14.1z" fill="#111"/><path d="M20.758 66l-3.12-2.716L34.46 44.679l9.09 11.272L61.19 34.63l3.12 2.58-20.757 25.123-9.226-11.407L20.758 66zm22.115-48.074H14.924V22h27.95v-4.074zm-12.21 10.05H14.924v4.074h15.739v-4.074z" fill="#111"/></svg>