<svg width="475" height="63" fill="none" xmlns="http://www.w3.org/2000/svg"><path d="M33.177 28.03V38.4h15.408c0 .483-.372.483-.372.483-.995 3.979-3.48 7.355-6.71 9.887-3.355 2.412-7.332 3.738-11.432 3.738-4.225 0-8.326-1.326-11.68-3.858-3.356-2.532-5.716-6.03-6.71-10.008H.496c1.243 6.752 4.722 13.022 10.19 17.484 5.342 4.461 12.301 6.873 19.384 6.873 16.775 0 29.822-11.817 29.822-27.734 0-2.411-.249-4.823-.994-7.235H33.177zM11.68 16.334H0v11.697h11.68V16.334zm31.935 4.944h13.296c-2.486-4.823-6.337-8.923-11.06-11.817-4.721-2.894-10.189-4.34-15.78-4.34H11.68v11.213h18.39c6.088-.12 10.065 1.568 13.544 4.944zm114.94-5.426v12.179h11.059V5.844h-11.059v10.008zM296.234 5.844h-11.556v56.312h11.556V5.844zm-164.022 0h-11.184v56.312h11.184V23.449l24.479 38.707h12.923L133.951 5.844h-1.739zm-61.881 0v56.191h38.023v-10.49H81.017V38.521h27.337v-10.37H81.017V16.333h27.337V5.844H70.331zm112.329 0v56.191h38.024v-10.49h-27.337V38.521h27.337v-10.37h-27.337V16.333h27.337V5.844H182.66zm137.68 36.054h-11.059V52.99h11.059V41.898zm-75.053-21.102c0-3.497 3.107-5.788 7.953-5.788 5.095 0 7.704 2.653 8.325 6.03h11.929C272.5 10.667 263.429 5 253.364 5c-11.804 0-20.005 6.511-20.005 15.555 0 21.102 29.325 14.711 29.325 26.166 0 3.739-3.107 6.27-9.195 6.27-6.213 0-9.568-3.255-9.817-8.44h-11.805C232.116 55.886 240.566 63 253.613 63c12.923 0 20.751-7.114 20.751-15.917.249-21.222-29.077-14.952-29.077-26.287z" fill="#fff"/><path d="M321.085 20.796c0-3.497 3.107-5.788 7.953-5.788 5.095 0 7.704 2.653 8.325 6.03h11.929C348.422 10.667 339.227 5 329.286 5c-11.804 0-20.005 6.511-20.005 15.555 0 21.102 29.325 14.711 29.325 26.166 0 3.377-2.361 5.668-7.207 6.15V62.88c11.805-.602 19.012-7.476 19.012-15.916 0-21.102-29.326-14.832-29.326-26.167zm146.931-.581c1.838 0 2.94-.726 2.94-1.936 0-1.574-1.838-2.058-3.921-2.542-2.818-.605-6.003-1.332-6.003-4.842 0-2.905 2.573-4.842 6.739-4.842 4.288 0 6.739 1.816 6.739 5.326h-3.676c-.123-1.937-1.103-2.663-3.063-2.663-1.716 0-2.696.726-2.696 1.816 0 1.694 2.328 2.179 4.779 2.784 2.573.726 5.146 1.573 5.146 4.6 0 3.026-2.573 4.962-6.862 4.962-4.656 0-7.229-1.936-7.229-5.568h3.798c-.122 1.937 1.103 2.905 3.309 2.905zM374.283 9.078c-2.328 0-3.798 2.18-3.798 5.447 0 3.269 1.593 5.447 3.921 5.447s3.798-2.057 3.798-5.447c0-3.389-1.47-5.447-3.921-5.447zm.858 13.678c-.98 0-1.96-.242-2.818-.605-.858-.363-1.593-1.09-2.206-1.816v2.058h-3.553V0h3.799v8.352c.612-.726 1.347-1.331 2.082-1.695.858-.363 1.716-.605 2.696-.484 4.166 0 6.739 3.147 6.739 8.231s-2.696 8.352-6.739 8.352zm13.723-13.799c.367-.726.98-1.453 1.838-1.816.735-.484 1.593-.726 2.573-.726.612 0 1.225 0 1.838.121v3.147c-.49-.12-1.103-.12-1.593-.12-3.063 0-4.289 2.057-4.289 5.93v7.021h-3.798V6.536h3.553v2.421h-.122zm11.15 5.57c0 3.39 1.47 5.568 4.043 5.568 2.573 0 4.166-2.179 4.166-5.568 0-3.51-1.593-5.568-4.166-5.568-2.573 0-4.043 2.058-4.043 5.568zm12.252 0c0 5.084-3.185 8.473-8.086 8.473-5.024 0-7.965-3.39-7.965-8.473 0-5.084 3.186-8.352 8.087-8.352s7.964 3.268 7.964 8.352zm7.107-1.333l5.391-6.658h4.534l-6.249 7.142 6.861 8.836h-4.656l-5.881-7.989v7.99h-3.798V0h3.798v13.194zm18.624-4.357c-2.083 0-3.676 1.332-3.921 4.116h7.719c-.122-2.784-1.715-4.116-3.798-4.116zm.245-2.784c3.063 0 5.024 1.332 6.126 3.268.98 1.695 1.225 3.753 1.225 6.174h-11.517c.123 2.784 1.47 4.6 4.043 4.6.736 0 1.593-.122 2.206-.606s1.103-1.09 1.225-1.816h3.921c-.858 3.51-3.553 5.205-7.474 5.205-5.269 0-7.964-3.268-7.964-8.473.245-4.72 3.308-8.352 8.209-8.352zm14.336 2.904c.367-.726.98-1.453 1.838-1.816.735-.484 1.592-.726 2.573-.726.612 0 1.225 0 1.838.121v3.147c-.491-.12-1.103-.12-1.593-.12-3.063 0-4.289 2.057-4.289 5.93v7.021h-3.798V6.536h3.553l-.122 2.421z" fill="#fff"/></svg>