<svg width="97" height="87" fill="none" xmlns="http://www.w3.org/2000/svg"><path d="M31.975 86.503c-3.68-1.18-6.165-3.488-6.667-7.488a23.634 23.634 0 01-.173-4.175c.118-2.078.685-4.065 1.981-5.758 1.306-1.703 3.005-2.847 5.087-3.323a13.626 13.626 0 013.215-.358c2 .028 3.945.44 5.644 1.584 1.882 1.264 3.041 3.067 3.672 5.219.51 1.748.502 3.552.447 5.41H30.404c.1 1.419.384 2.7 1.388 3.708 1.571 1.574 4.722 1.849 6.43.53.42-.292.959-.979 1.27-1.446h5.442c-.182 1.19-.748 2.151-1.46 3.049-1.435 1.812-3.316 2.856-5.554 3.305-.392.073-3.077.631-5.945-.257zm7.736-12.45c-.174-3.36-3.014-4.65-5.635-4.193-2.284.403-3.416 2.627-3.425 4.193h9.06zm34.941 12.45c-3.68-1.18-6.164-3.488-6.667-7.488a23.672 23.672 0 01-.173-4.175c.119-2.078.685-4.065 1.982-5.758 1.306-1.703 3.004-2.847 5.087-3.323a13.626 13.626 0 013.214-.358c2 .028 3.946.44 5.644 1.584 1.882 1.264 3.042 3.067 3.672 5.219.511 1.748.502 3.552.447 5.41H73.081c.1 1.419.384 2.7 1.389 3.708 1.57 1.574 4.721 1.849 6.43.53.42-.292.958-.979 1.268-1.446h5.434c-.182 1.19-.748 2.151-1.46 3.049-1.435 1.812-3.316 2.856-5.553 3.305-.384.073-3.069.631-5.937-.257zm7.736-12.45c-.174-3.36-3.014-4.65-5.635-4.193-2.283.403-3.416 2.627-3.425 4.193h9.06zm-25.033 4.266l3.58-12.386h5.68s-.438 1.226-.648 1.821L60.46 83.043c-.356.988-1.178 3.286-1.178 3.286h-5.599l-5.826-16.322c-.484-1.346-.96-2.665-1.462-4.074h5.982s2.074 7.378 3.06 10.875c.374 1.319 1.16 3.955 1.16 3.955s.52-1.63.758-2.444zm9.68-26.174c0-1.749 1.443-3.177 3.224-3.159 1.79.019 3.215 1.291 3.224 3.159.009 1.794-1.242 3.195-3.215 3.213-1.808.01-3.169-1.281-3.233-3.213zm3.242-2.07c-1.178 0-2.018.88-2.073 2.06-.055 1.154.987 2.189 2.073 2.161 1.133-.027 2.055-.97 2.055-2.142a2.064 2.064 0 00-2.055-2.078zm-11.562-.612v1.264c-.73-.458-1.598-.696-2.41-.66-.969.046-1.864.797-1.964 1.685-.165 1.41.63 2.197 1.525 2.444.128.037.256.074.393.092.566.082 1.424-.147 1.424-.147v-1.4h-1.105v-1.017h2.146v3.086c-.356.265-1.168.402-1.296.43-1.398.293-2.621-.019-3.59-1.135-1.095-1.273-.812-3.424.548-4.413 1.37-.989 2.84-.833 4.33-.229zm5.298 2.966l2.018 2.756h-1.297l-1.836-2.5h-.657v2.5H61.2v-6.088h2.155c.795.082 1.407.586 1.562 1.373.118.687.128 1.355-.904 1.959zm-1.781-2.27v1.501h.886c.219-.018.42-.1.575-.33.137-.201.137-.631.01-.833-.129-.201-.348-.31-.585-.338h-.886zm17.955-1.044h1.004s.01 1.099 0 1.639c-.018.851-.009 1.703-.1 2.545-.11 1.016-1.087 1.85-2.11 1.996-.977.137-1.808-.092-2.484-.824a2.527 2.527 0 01-.676-1.63c-.045-1.217-.018-3.698-.018-3.698h1.005s-.01 2.05 0 3.085c0 .265.036.54.091.805.164.715.785 1.227 1.47 1.264.767.036 1.38-.348 1.644-1.08.1-.275.155-.586.165-.88.018-1.07.009-3.222.009-3.222zm4.63 3.799v2.252h-1.042V49.17l2.503.018c.95.12 1.48 1.117 1.379 2.087-.091.852-.831 1.612-1.726 1.63-.375.018-1.114.01-1.114.01zm0-2.746v1.74h.968a.844.844 0 00.803-.806c.019-.568-.283-.898-.803-.934h-.968zm-79.51-1.19H.001v37.351h5.306V48.978zM5.307 0H.001v42.844h5.306V0zM97 0h-5.306v42.844H97V0zm0 49.17h-5.306v37.159H97v-37.16z" fill="#111"/><path d="M22.54 86.335v-5.319H0v5.319h22.54zM96.993 5.32V.003H.003v5.319h96.99z" fill="#111"/></svg>