<svg width="141" height="87" fill="none" xmlns="http://www.w3.org/2000/svg"><path d="M58.317 32.196c-1.361 0-2.613.054-3.92 0-.87-.055-1.469-.654-1.632-1.689-.11-.49-.11-1.035-.11-1.525V17.106c0-.98-.163-1.962-.435-2.888-.435-1.58-1.524-2.288-3.157-2.179-1.742.055-3.266.6-4.681 1.69-.163.108-.327.435-.327.653v15.036c0 .926.164 1.852.218 2.778h-5.879c.055-.708.11-1.362.164-2.07 0-.327.054-.654.054-.98 0-3.923.055-7.9 0-11.822 0-.981-.163-2.016-.435-2.997-.436-1.634-1.579-2.397-3.266-2.288-1.688.11-3.212.654-4.518 1.69-.163.163-.327.435-.327.653v15.09c0 .872.11 1.743.218 2.67H24.46c.217-7.519.217-15.09 0-22.718h3.592c.926 0 1.524.436 1.797 1.362.163.545.163 1.144.272 1.744.38-.327.762-.709 1.143-1.035 2.45-2.07 5.225-2.997 8.437-2.397 1.85.326 3.157 1.361 3.865 3.16.054.217.163.38.217.599.762-.654 1.416-1.308 2.178-1.853 2.286-1.743 4.844-2.397 7.675-1.906 2.449.435 3.919 1.852 4.354 4.303.163.926.272 1.853.272 2.724.055 4.195 0 8.444 0 12.639-.108 1.198 0 2.288.055 3.432zM19.398 1.58c-.545 1.471-1.361 1.852-2.722 1.253-2.014-.926-4.137-1.362-6.369-1.144-1.85.218-3.374.926-4.082 2.778-.762 1.907-.381 3.65 1.034 5.067 1.034 1.035 2.232 1.961 3.484 2.778 2.014 1.308 4.082 2.506 6.096 3.813 1.688 1.145 3.157 2.561 3.974 4.522 1.36 3.214.816 8.444-4.246 10.732-2.34 1.035-4.844 1.362-7.403 1.362-2.83-.054-5.606-.6-8.219-1.798-.163-.054-.327-.163-.49-.272-.054 0-.054-.055-.109-.109.381-1.253 1.415-1.689 2.559-1.09 2.34 1.199 4.79 1.744 7.457 1.58 1.633-.109 3.048-.654 4.082-2.015 1.415-1.853 1.252-4.576-.326-6.592-1.034-1.308-2.395-2.288-3.81-3.16-2.123-1.362-4.246-2.615-6.315-4.086C2.36 14.055 1 12.64.401 10.678-.634 7.464.129 2.888 5.136 1.035 6.77.436 8.456.164 10.198.055c2.994-.164 5.934.272 8.71 1.362l.49.163zm55.793 7.899c1.252 0 2.558-.054 3.81 0 .98.054 1.579.817 1.688 2.125 0 .272.054.599.054.98.272-.272.49-.436.654-.599 2.34-2.07 5.007-3.16 8.219-2.996 2.994.163 4.899 1.852 5.334 4.848.163.872.218 1.798.218 2.724v11.277c0 1.416.054 2.887.109 4.358-1.307 0-2.667.055-4.028 0-.599-.054-1.143-.436-1.307-1.09a7.331 7.331 0 01-.272-1.906c-.054-4.14 0-8.335-.054-12.476 0-.653-.11-1.307-.272-1.96-.49-2.125-1.797-2.942-4.028-2.725-1.579.164-2.994.709-4.246 1.69-.163.163-.327.435-.327.653v15.09c0 .872.11 1.743.164 2.67h-5.77c.054-7.518.054-15.036.054-22.663zM26.365 65.427v21.028h-4.681v-13.51c-.055 0-.11-.055-.11-.055-.108.163-.217.272-.271.436-2.83 4.195-5.716 8.335-8.546 12.53-.327.49-.653.653-1.252.653-1.252-.054-2.504 0-3.81 0V65.481h4.626v13.674c.218-.272.327-.436.436-.6 2.885-4.249 5.77-8.498 8.709-12.747.109-.163.327-.327.49-.327 1.415-.109 2.885-.054 4.409-.054zm84.697 10.405c0-6.21 4.953-11.167 11.159-11.167a11.109 11.109 0 0111.158 11.167c0 6.21-5.007 11.168-11.158 11.168s-11.159-5.012-11.159-11.168zm4.627 0c0 3.596 2.885 6.538 6.477 6.538 3.593 0 6.532-2.888 6.532-6.483 0-3.596-2.885-6.537-6.477-6.592-3.538-.054-6.478 2.942-6.532 6.537zM72.742 65.427h16.112v4.304H77.423v3.977h11.43v4.358h-11.43v3.977h11.43V86.4h-16.11V65.427zM35.837 86.455h-4.682V65.427h4.627v7.899h9.145v-7.954h4.627V86.4h-4.627v-8.28h-9.09v8.335z" fill="#111"/><path d="M93.372 65.427h4.572v8.335h1.796c.163 0 .327-.218.436-.381a688.92 688.92 0 005.661-7.572c.217-.273.381-.382.707-.382h5.171c-.163.218-.272.382-.381.545-2.395 3.16-4.735 6.374-7.13 9.534-.273.326-.218.544 0 .871 2.395 3.214 4.79 6.428 7.239 9.697.109.109.163.218.327.436-1.415 0-2.722-.109-4.028 0-1.143.109-1.851-.327-2.504-1.253-1.579-2.288-3.321-4.467-4.953-6.7-.273-.328-.49-.491-.926-.437-.435.055-.87 0-1.36 0v8.335h-4.627V65.427zm24.603-37.045c.544.709.544 1.253-.163 1.798-1.307 1.09-2.885 1.689-4.518 2.07-2.341.545-4.627.6-6.968.055-3.048-.709-5.279-2.56-6.423-5.448-1.633-4.14-1.741-8.335.218-12.42 1.688-3.433 4.573-5.122 8.328-5.394 1.524-.109 3.049 0 4.573.381 3.211.926 5.116 3.106 5.77 6.32.272 1.253.163 2.615.217 3.922 0 .436-.217.545-.653.545h-13.717c.109 2.724.272 5.393 1.579 7.79.979 1.743 2.612 2.451 4.518 2.615 2.612.218 4.953-.436 7.076-2.07 0-.11.109-.11.163-.164zm-4.246-9.969c0-.763.055-1.47 0-2.125-.054-1.307-.217-2.56-.762-3.758a3.741 3.741 0 00-6.042-1.09c-.925.872-1.415 2.016-1.742 3.214-.381 1.471-.544 2.942-.598 4.467a564.48 564.48 0 019.144-.708zm13.935 3.214c-2.83-4.031-5.607-8.062-8.383-12.04.055-.054.055-.108.055-.108h4.953c.653 0 1.198.327 1.579.871.599.872 1.143 1.744 1.742 2.56 1.034 1.58 2.122 3.106 3.157 4.686.054.109.109.163.272.327.49-.763.98-1.471 1.415-2.18 1.198-1.852 2.45-3.758 3.647-5.61.272-.436.653-.654 1.198-.654.762.054 1.578 0 2.503 0-2.721 3.268-5.334 6.428-8.001 9.588 3.048 4.358 6.096 8.716 9.199 13.129h-5.171c-.708 0-1.306-.382-1.687-.98-.926-1.417-1.797-2.834-2.722-4.25-.925-1.417-1.905-2.778-2.939-4.195a10.44 10.44 0 00-.382.545c-1.85 2.778-3.701 5.502-5.497 8.28-.272.436-.599.6-1.089.6-.816-.055-1.687 0-2.613 0 2.94-3.541 5.879-7.028 8.764-10.569zm-57.807 43.8v4.304h-6.369v16.724h-4.681v-16.67h-6.423v-4.303c5.77-.055 11.594-.055 17.473-.055zM63.76 9.479c1.252 0 2.559-.055 3.865 0 .925.054 1.47.654 1.633 1.689.054.435.109.926.109 1.362v13.89c0 1.907.054 3.814.109 5.72H63.76V9.48zm-3.647 39.768v-1.09h22.699v1.09H60.113zm6.26-43.417c-1.633 0-2.94-1.308-2.94-2.888C63.434 1.307 64.795 0 66.428 0a2.928 2.928 0 012.94 2.942c0 1.634-1.307 2.887-2.994 2.887z" fill="#111"/></svg>