<svg width="231" height="58" fill="none" xmlns="http://www.w3.org/2000/svg"><path d="M152.967 37.026h21.059v3.532h-21.059v3.638h21.059v3.532h-24.693v-17.55h24.693v3.424h-21.059v3.424zm28.435 0h21.058v3.532h-21.058v3.638h21.058v3.532h-24.693v-17.55h24.693v3.424h-21.058v3.424zm24.799-7.063h17.317c2.779 0 5.345.428 6.628 3.104 1.389 2.782 1.069 5.564-.855 8.133 1.603 1.819 1.817 3.959 1.603 6.42h-3.528v-2.247c-.106-1.391-.962-2.354-2.351-2.461-5.024-.107-10.155 0-15.393 0v4.708h-3.421V29.963zm3.314 9.417h15.393c1.496 0 2.458-1.177 2.458-2.889 0-1.82-.855-2.996-2.458-2.996-4.81-.107-9.621 0-14.431 0-.321 0-.855.428-.855.642-.107 1.712-.107 3.424-.107 5.243zm-104.651 8.347h-5.986c-3.634 0-6.307-2.568-6.307-6.207v-5.35c0-3.639 2.352-6.1 5.986-6.207 4.276-.107 8.445-.107 12.721 0 3.634.107 6.093 2.675 6.093 6.314v5.35c0 3.425-2.672 5.993-6.093 6.1h-6.414zm.214-3.638h6.093c1.71 0 2.672-.964 2.672-2.676v-5.136c0-1.82-1.069-2.783-2.779-2.783H98.985c-1.817 0-2.78.964-2.886 2.783v5.136c0 1.82.962 2.676 2.78 2.783 2.137 0 4.168-.107 6.199-.107zm-44.361-1.177v4.708h-3.421V29.963h18.279c3.1 0 5.238 1.498 6.093 3.96 1.069 2.996.214 6.206-2.138 7.812-1.069.749-2.459 1.07-3.634 1.177-4.49.107-8.873 0-13.362 0h-1.817zm.106-3.532h14.645c2.031 0 2.993-.963 2.993-2.996s-.962-2.996-2.993-2.996H62.106c-.427 0-.748 0-1.283.107v5.885zM17.852 58h-3.528V0h3.528v58zm-7.269-1.605h-3.42V5.244h3.42v51.15zm11.01-51.151h3.42V54.79h-3.42V5.244zm99.52 24.719h17.958c4.383 0 6.735 2.355 6.735 6.742V47.62h-3.528V36.17c0-1.712-1.069-2.782-2.779-2.782h-13.897c-.962 0-1.175.428-1.175 1.284V47.62h-3.314V29.963zM28.862 10.486h3.42V51.58h-3.42V10.486zM0 27.394h3.314V51.58H0V27.394zM89.044 47.62H85.73V29.963h3.314V47.62z" fill="#111"/></svg>