<svg width="259" height="58" fill="none" xmlns="http://www.w3.org/2000/svg"><path d="M195.845 20.22v2.129c0 .745-.106 1.383-.318 2.128-.107.745-.426 1.384-.746 2.128-.318.745-.85 1.384-1.488 2.129-1.169 1.277-2.445 2.128-3.828 2.554-1.381.426-2.87.639-4.465.639-1.276 0-2.552-.213-3.509-.639-1.063-.426-2.02-1.064-2.976-1.81a9.15 9.15 0 01-1.701-1.915c-.426-.638-.639-1.277-.851-1.915a6.021 6.021 0 01-.319-1.916V.532h-3.934V20.54c0 1.277.106 2.661.425 4.257.213 1.49.851 2.98 1.701 4.257.958 1.277 2.339 2.448 4.147 3.3 1.808.85 4.359 1.276 7.442 1.276 1.914 0 3.722-.319 5.21-.957 1.489-.639 2.765-1.49 3.828-2.555 1.064-1.064 1.808-2.34 2.34-3.724.53-1.384.744-2.98.744-4.576V.532h-1.702V20.22zM71.555 48.422H67.94v9.472h1.17V55.02h2.445c1.17 0 2.232-.319 2.87-.851.638-.532 1.064-1.384 1.064-2.341 0-1.065-.32-1.81-1.064-2.342-.638-.745-1.594-1.064-2.87-1.064zm2.02 4.895c-.425.426-1.17.532-2.02.532h-2.446v-4.363h2.34c.85 0 1.594.213 2.02.532.425.426.744.958.744 1.597 0 .745-.213 1.277-.638 1.702zm18.819-25.115c.531-1.17.85-2.448.85-3.725 0-1.916-.531-3.405-1.382-4.683a12.904 12.904 0 00-3.615-3.086 23.006 23.006 0 00-4.678-2.022c-1.701-.532-3.296-1.17-4.784-1.809-1.489-.638-2.659-1.383-3.722-2.128-.957-.852-1.488-1.916-1.488-3.406 0-.745.212-1.49.531-2.128.32-.639.851-1.277 1.489-1.81.638-.532 1.489-.85 2.445-1.17.957-.32 2.02-.426 3.296-.426 2.02 0 3.828.426 5.21 1.277 1.382.852 2.233 2.235 2.552 4.044h2.87c-.212-1.064-.638-2.022-1.17-2.873a10.27 10.27 0 00-2.445-2.341C87.397 1.277 86.227.85 84.951.532 83.675.212 82.4 0 81.017 0c-1.382 0-2.764.213-4.04.532-1.276.32-2.445.958-3.402 1.596a9.372 9.372 0 00-2.34 2.661 8.375 8.375 0 00-.85 3.725c0 1.809.425 3.299 1.382 4.363a13.04 13.04 0 003.509 2.767c1.382.745 2.977 1.383 4.572 1.916 1.701.532 3.19 1.17 4.678 1.809 1.382.638 2.658 1.49 3.615 2.448.957.957 1.488 2.34 1.488 4.044 0 2.128-.744 3.618-2.339 4.576-1.488.957-3.508 1.383-5.954 1.383-2.02 0-3.615-.213-4.784-.745-1.17-.532-2.127-1.17-2.765-1.915-.638-.745-1.063-1.49-1.275-2.235-.213-.745-.32-1.277-.32-1.81H69.11c.107 1.278.426 2.448 1.064 3.406a9.025 9.025 0 002.551 2.767 12.764 12.764 0 003.828 1.81c1.488.425 3.083.638 4.89.638 1.808 0 3.403-.213 4.891-.639a13.447 13.447 0 003.722-1.809c.957-.958 1.7-1.916 2.339-3.086zm54.543 29.585h1.276v-9.471h-1.276v9.471zM13.29.532L0 33.097h1.382l4.147-9.684h16.373l4.466 9.684h4.146L15.417.532H13.29zM6.273 21.604l6.91-16.07h.426l7.443 16.07H6.273zm196.589-18.73h12.547V32.99h3.933V2.873h12.546V.533h-29.026v2.34zm56.138 0V.531h-20.838V32.99H259v-2.235h-16.905V16.708h14.46V14.9h-14.46V2.873H259zM57.626 17.346c-1.063-.532-2.551-1.064-3.72-1.277a24.54 24.54 0 00-2.233-.32v-.212s1.488-.107 2.977-.639c.956-.426 1.913-1.064 2.657-1.703.745-.638 1.276-1.383 1.702-2.341.319-.851.531-1.703.531-2.767 0-.851-.212-1.703-.531-2.66-.32-.852-.957-1.703-1.702-2.448a7.805 7.805 0 00-2.87-1.81A12.021 12.021 0 0050.29.427H38.701v32.458h11.59c2.02 0 3.827-.319 5.21-.85 1.381-.533 2.55-1.278 3.401-2.13a8.507 8.507 0 001.914-2.873c.425-1.064.532-2.235.532-3.299 0-1.703-.425-3.193-1.17-4.15a8.6 8.6 0 00-2.551-2.235zM42.636 2.34h5.847c1.276 0 2.339.213 3.19.532.85.32 1.594.852 2.126 1.384.532.532.957 1.277 1.276 2.022.212.745.425 1.49.425 2.235 0 .958-.213 1.809-.532 2.554a5.559 5.559 0 01-1.488 2.022c-.638.532-1.382 1.064-2.233 1.383-.85.32-1.701.532-2.658.532h-5.741V2.341h-.213zm13.821 24.903a8.52 8.52 0 01-1.595 2.235c-.638.638-1.488 1.064-2.339 1.383-.85.32-1.914.426-2.87.426h-7.018V16.602h5.316c1.595 0 2.87.213 4.04.638 1.17.426 2.127.958 2.871 1.703.744.745 1.276 1.49 1.701 2.448.32.958.532 1.915.532 2.873 0 1.17-.213 2.129-.638 2.98zm75.702-21.39c-1.49-1.704-3.403-3.087-5.636-4.151-2.232-1.064-4.997-1.597-8.08-1.597-3.084 0-5.742.533-7.868 1.597-2.233 1.064-4.04 2.447-5.423 4.15a16.29 16.29 0 00-3.083 5.428c-.638 2.022-.957 3.83-.957 5.64 0 1.703.319 3.618.957 5.534a16.29 16.29 0 003.083 5.428c1.383 1.702 3.19 3.086 5.423 4.15 2.233 1.064 4.784 1.596 7.868 1.596 2.02 0 3.933-.212 5.634-.745 1.702-.532 3.191-1.17 4.572-2.022 1.383-.85 2.552-1.915 3.51-2.98.956-1.17 1.806-2.34 2.445-3.618.637-1.277 1.169-2.554 1.488-3.83.319-1.278.532-2.449.532-3.62 0-1.702-.319-3.618-1.064-5.533-.85-2.022-1.913-3.831-3.401-5.428zm-.958 17.027c-.744 1.809-1.701 3.405-2.977 4.789-1.276 1.277-2.657 2.341-4.359 3.086-1.701.745-3.402 1.064-5.316 1.064-1.914 0-3.615-.425-5.21-1.064-1.595-.745-2.977-1.81-4.146-3.086-1.17-1.277-2.127-2.874-2.765-4.79-.638-1.808-1.063-3.83-1.063-6.065 0-2.235.319-4.257 1.063-6.066a15.257 15.257 0 012.765-4.79c1.169-1.276 2.551-2.34 4.146-3.086 1.595-.745 3.403-1.064 5.21-1.064s3.615.426 5.316 1.064c1.702.745 3.083 1.81 4.359 3.087 1.276 1.277 2.233 2.873 2.977 4.789.744 1.809 1.063 3.83 1.063 6.066 0 2.234-.425 4.256-1.063 6.066zm34.768 7.875h-16.905V.532h-3.935v32.459h20.84v-2.235zm23.603 17.666l-3.934 6.811-4.04-6.811h-1.063v9.472h1.169v-7.13l3.828 6.385 3.828-6.386v7.13h1.169v-9.471h-.957zm-22.434 5.321c0 1.064-.212 1.81-.744 2.341-.425.532-1.169.745-2.02.745-1.808 0-2.764-1.064-2.764-3.086v-5.321h-1.276v5.321c0 1.384.319 2.341 1.063 3.086.744.745 1.701 1.065 2.977 1.065 1.276 0 2.232-.32 2.977-1.065.744-.745 1.063-1.702 1.063-3.086v-5.321h-1.169v5.321h-.107zm-33.491-5.321l-3.934 6.811-4.041-6.811h-1.063v9.472h1.17v-7.13l3.828 6.385 3.828-6.386v7.13h1.169v-9.471h-.957zM92.5 54.594a3.17 3.17 0 001.489-1.064c.319-.532.531-1.17.531-1.809 0-1.064-.319-1.81-1.063-2.341-.744-.532-1.701-.852-2.87-.852H86.97V58h1.276v-2.873h3.084L93.35 58h1.276L92.5 54.594zm-1.914-.745h-2.339v-4.47h2.34c.85 0 1.594.214 2.02.533.425.426.744.958.744 1.596 0 .745-.213 1.277-.745 1.597-.531.638-1.17.745-2.02.745zm16.799-.319h4.785v-1.064h-4.785V49.38h5.316v-1.064h-6.592v9.471h6.805v-1.064h-5.529V53.53z" fill="#111"/></svg>