<svg width="267" height="58" fill="none" xmlns="http://www.w3.org/2000/svg"><path d="M76.61 0c.928.186 2.04.558 2.968.744 5.565 1.3 10.017 4.275 12.985 9.109 3.71 5.762 2.968 13.384-1.484 18.775-2.782 3.16-8.347 6.507-12.428 7.622h6.121s8.347 14.872 12.243 21.564H82.732L71.045 36.25H59.73v21.564h-12.8c0-16.73-.185-50.75-.185-50.75s-.37 1.673-.742 2.23C40.067 24.91 33.575 42.2 27.64 58h-4.08C17.436 42.013 3.523 7.064 3.523 7.064v50.75H0V0h13.727c0 .186.185.558.185.744C19.106 13.756 24.3 26.955 29.494 39.968c.186.372.371.743.742 1.301.371-.743.556-1.301.742-1.859 2.411-6.134 4.637-12.269 7.049-18.218C40.809 14.128 43.407 7.064 46.189 0H76.61zM59.73 33.462h9.275c3.895 0 7.049-1.674 8.904-5.206 3.71-6.692 3.71-13.57 0-20.262-1.855-3.347-5.009-5.02-8.904-5.02-2.597 0-9.275.186-9.275.186v30.302zM150.067 43.5h-6.121v-29h14.283c2.412 0 4.638 1.301 6.492 2.788 4.452 3.532 4.081 10.41-.556 13.571-1.113.744-2.411 1.487-4.266 1.859h2.597l6.306 10.782h-6.863l-5.75-10.782h-5.936c-.186 3.718-.186 7.064-.186 10.782zm0-27.513v15.058h4.081s3.154-.93 4.638-2.417c2.226-3.16 2.04-6.878.185-10.038-2.04-3.718-8.904-2.603-8.904-2.603zm58.061-1.487h6.307v18.961c.371 6.693 7.049 10.411 12.985 7.25 1.298-.743 2.782-2.416 2.782-3.16V14.315h6.121v29.371h-.927l-4.637-4.647c-3.896 4.276-8.719 4.833-13.913 3.718-5.379-1.116-8.718-5.391-8.904-10.968 0-5.577.186-17.289.186-17.289zm-20.405 29c-10.388 0-17.251-8.365-15.025-18.218 1.483-6.32 7.234-10.596 14.468-10.782 7.791-.186 14.655 5.02 15.582 12.27 1.299 9.666-5.194 16.73-15.025 16.73zm-8.719-14.314c-.185-.186.186 0 0 0 0 3.532.557 6.878 2.412 10.038.927 1.488 2.226 2.603 4.081 3.16 3.71 1.116 7.42-.557 9.089-4.647 2.597-5.949 2.597-11.897-.185-17.846-1.299-2.974-3.71-4.462-7.049-4.276-3.339.186-5.565 2.045-6.493 4.834-1.113 2.788-1.855 5.577-1.855 8.737zM243.001 14.5h5.75c2.968 0 5.751-.186 8.719.185 2.04.186 4.081 1.116 5.75 2.231 5.009 3.346 5.009 9.853.186 13.385-2.226 1.673-5.009 2.417-7.791 2.417h-6.307V43.5h-6.307v-29zm6.307 16.73s7.049.744 8.904-2.416c1.669-2.789 1.669-7.994-.186-10.41-1.855-2.789-8.533-2.045-8.533-2.045-.185 5.019-.185 9.852-.185 14.871zm-113.524-9.109l-.928-.557c-.371-2.603-1.855-4.09-4.081-5.02-2.411-1.115-5.194-.93-7.605-.186-2.597.744-4.452 2.417-5.565 4.834-2.411 5.39-2.597 11.154-.185 16.545 1.854 4.275 5.564 5.948 9.645 4.833 2.226-.558 4.267-2.417 4.267-5.577V31.23h6.307v12.641h-.371s-2.597-2.045-3.896-3.16c-4.637 3.904-9.646 3.904-14.839 2.045-5.009-1.673-7.791-5.391-9.09-10.41-1.855-9.11 4.452-17.475 13.727-17.846 2.411-.186 5.008-.186 7.234.743 2.412.744 5.38 3.532 5.38 6.878z" fill="#111"/></svg>