<svg width="549" height="282" fill="none" xmlns="http://www.w3.org/2000/svg"><path d="M156.085 112.26v50.15h72.66c-.384 2.701-1.537 1.929-1.922 2.701-4.998 18.903-16.531 35.491-31.909 47.45-15.378 11.959-34.6 18.517-53.822 18.517-19.992 0-39.214-6.558-54.592-18.903-15.762-12.345-26.911-29.319-31.909-48.607h-51.9c5.382 33.176 22.298 63.266 47.671 84.87C75.736 270.041 108.03 282 141.476 282c78.811 0 140.323-57.48 140.323-135.021 0-11.959-1.538-23.532-4.229-35.105l-121.485.386zM54.591 54.78H0v56.709h54.591V54.78zM204.91 79.084h62.28c-11.533-23.533-29.602-43.593-51.9-57.48C192.992 7.33 167.234 0 141.092 0h-86.5v54.394h86.5c28.833 0 47.287 7.715 63.818 24.69zm302.995 54.487c18.435-11.933 28.805-31.949 28.805-56.97C536.71 28.485 499.071 0 436.468 0H333.154v235.193h49.545v-74.292h53.769c53.385 0 60.299 19.247 60.299 35.799 0 26.945-16.131 38.108-55.306 38.108h-58.378V281h58.378C512.897 281 549 252.515 549 196.7c0-28.1-15.363-50.811-41.095-63.129zm-74.894-18.861h-49.928V46.192h45.32c41.863 0 57.226 9.623 57.226 35.029 0 8.083 0 33.489-52.618 33.489z" fill="#111"/></svg>