<svg width="147" height="20" fill="none" xmlns="http://www.w3.org/2000/svg"><path d="M10.248 8.996v3.263h4.76c0 .152-.116.152-.116.152-.307 1.252-1.075 2.315-2.073 3.111A5.973 5.973 0 019.29 16.7a5.902 5.902 0 01-3.609-1.215 5.674 5.674 0 01-2.072-3.149H.154c.383 2.125 1.458 4.098 3.147 5.502C4.95 19.241 7.1 20 9.288 20c5.182 0 9.212-3.719 9.212-8.727 0-.76-.077-1.518-.307-2.277h-7.945zm-6.64-3.68H0v3.68h3.608v-3.68zm9.864 1.555h4.107a9.416 9.416 0 00-3.416-3.718c-1.459-.91-3.148-1.366-4.875-1.366h-5.68v3.529h5.68c1.881-.038 3.11.493 4.184 1.555zm35.502-1.707v3.832h3.416V2.014h-3.416v3.15zM91.5 2.015h-3.569v17.72h3.57V2.014zm-50.662 0h-3.455v17.72h3.455V7.554l7.56 12.18h3.992L41.375 2.014h-.537zm-19.114 0v17.681h11.744v-3.3h-8.443v-4.099h8.444V9.034h-8.444V5.316h8.444V2.015H21.723zm34.696 0v17.681h11.745v-3.3h-8.444v-4.099h8.444V9.034h-8.444V5.316h8.444V2.015H56.421zM98.947 13.36H95.53v3.49h3.416v-3.49zM75.765 6.72c0-1.1.96-1.821 2.456-1.821 1.574 0 2.38.834 2.572 1.897h3.684c-.307-3.263-3.109-5.047-6.218-5.047-3.646 0-6.179 2.05-6.179 4.895 0 6.64 9.058 4.63 9.058 8.234 0 1.176-.96 1.973-2.84 1.973-1.92 0-2.956-1.025-3.032-2.656h-3.647C71.696 17.762 74.306 20 78.336 20c3.992 0 6.41-2.238 6.41-5.008.077-6.678-8.981-4.705-8.981-8.272z" fill="#111"/><path d="M99.177 6.72c0-1.1.96-1.821 2.456-1.821 1.574 0 2.38.834 2.572 1.897h3.685c-.269-3.263-3.109-5.047-6.18-5.047-3.646 0-6.18 2.05-6.18 4.895 0 6.64 9.059 4.63 9.059 8.234 0 1.062-.73 1.783-2.226 1.935v3.15c3.646-.19 5.872-2.353 5.872-5.01 0-6.64-9.058-4.666-9.058-8.233zm45.648-.37c.572 0 .916-.228.916-.609 0-.494-.573-.646-1.222-.798-.877-.19-1.87-.418-1.87-1.521 0-.913.802-1.52 2.099-1.52 1.336 0 2.099.57 2.099 1.672h-1.145c-.038-.608-.343-.836-.954-.836-.534 0-.839.228-.839.57 0 .532.725.684 1.488.874.802.229 1.603.495 1.603 1.445 0 .95-.801 1.56-2.137 1.56-1.45 0-2.252-.61-2.252-1.75h1.183c-.038.609.344.913 1.031.913zm-29.196-3.498c-.725 0-1.183.684-1.183 1.71 0 1.027.496 1.712 1.221 1.712.725 0 1.183-.647 1.183-1.711 0-1.065-.458-1.711-1.221-1.711zm.267 4.296c-.305 0-.611-.076-.878-.19s-.496-.342-.687-.57v.646h-1.106V0h1.183v2.624a2.11 2.11 0 01.649-.533c.267-.114.534-.19.839-.152 1.298 0 2.099.989 2.099 2.586s-.839 2.623-2.099 2.623zm4.274-4.334c.115-.229.306-.457.573-.57.229-.153.496-.229.801-.229.191 0 .382 0 .573.038v.989c-.153-.038-.344-.038-.496-.038-.954 0-1.336.646-1.336 1.863v2.205h-1.183V2.053h1.107v.76h-.039zm3.474 1.749c0 1.064.458 1.749 1.259 1.749.801 0 1.298-.685 1.298-1.75 0-1.102-.497-1.748-1.298-1.748s-1.259.646-1.259 1.749zm3.816 0c0 1.597-.992 2.661-2.519 2.661-1.565 0-2.481-1.064-2.481-2.661s.993-2.624 2.519-2.624c1.527 0 2.481 1.027 2.481 2.624zm2.213-.419l1.68-2.09h1.412l-1.947 2.243 2.137 2.775h-1.45l-1.832-2.51v2.51h-1.183V0h1.183v4.144zm5.801-1.368c-.648 0-1.145.418-1.221 1.292h2.404c-.038-.874-.534-1.292-1.183-1.292zm.077-.875c.954 0 1.564.418 1.908 1.027.305.532.382 1.178.382 1.939h-3.588c.038.874.458 1.445 1.259 1.445.229 0 .497-.038.687-.19.191-.152.344-.343.382-.57h1.221c-.267 1.102-1.106 1.634-2.328 1.634-1.641 0-2.48-1.026-2.48-2.661.076-1.483 1.03-2.624 2.557-2.624zm4.465.913c.115-.229.305-.457.573-.57.229-.153.496-.229.801-.229.191 0 .382 0 .573.038v.989c-.153-.038-.344-.038-.497-.038-.954 0-1.335.646-1.335 1.863v2.205h-1.183V2.053h1.106l-.038.76z" fill="#111"/></svg>