<svg width="147" height="20" fill="none" xmlns="http://www.w3.org/2000/svg"><path d="M10.248 8.996v3.263h4.76c0 .152-.116.152-.116.152-.307 1.252-1.075 2.315-2.073 3.111A5.973 5.973 0 019.29 16.7a5.902 5.902 0 01-3.609-1.215 5.674 5.674 0 01-2.072-3.149H.154c.383 2.125 1.458 4.098 3.147 5.502C4.95 19.241 7.1 20 9.288 20c5.182 0 9.212-3.719 9.212-8.727 0-.76-.077-1.518-.307-2.277h-7.945zm-6.64-3.681H0v3.681h3.608v-3.68zm9.864 1.557h4.107a9.416 9.416 0 00-3.416-3.719c-1.459-.91-3.148-1.366-4.875-1.366h-5.68v3.529h5.68c1.881-.038 3.11.493 4.184 1.556zm35.502-1.708v3.832h3.416V2.014h-3.416v3.15zM91.5 2.015h-3.569v17.72h3.57V2.014zm-50.662 0h-3.455v17.72h3.455V7.554l7.56 12.18h3.992L41.375 2.014h-.537zm-19.114 0v17.681h11.744v-3.3h-8.444v-4.099h8.444V9.034h-8.444V5.316h8.444V2.015H21.724zm34.696 0v17.681h11.745v-3.3h-8.444v-4.099h8.444V9.034h-8.444V5.316h8.444V2.015H56.421zM98.947 13.36H95.53v3.49h3.416v-3.49zM75.765 6.72c0-1.1.96-1.822 2.456-1.822 1.574 0 2.38.835 2.572 1.898h3.684c-.307-3.264-3.109-5.047-6.218-5.047-3.646 0-6.179 2.049-6.179 4.895 0 6.64 9.058 4.629 9.058 8.233 0 1.177-.96 1.974-2.84 1.974-1.92 0-2.956-1.025-3.032-2.656h-3.647C71.696 17.76 74.306 20 78.336 20c3.992 0 6.41-2.239 6.41-5.009.077-6.678-8.981-4.705-8.981-8.271z" fill="#111"/><path d="M99.177 6.72c0-1.1.96-1.822 2.456-1.822 1.574 0 2.38.835 2.572 1.898h3.685c-.269-3.264-3.109-5.047-6.18-5.047-3.646 0-6.18 2.049-6.18 4.895 0 6.64 9.059 4.629 9.059 8.233 0 1.063-.73 1.784-2.226 1.936v3.149c3.646-.19 5.872-2.352 5.872-5.009 0-6.64-9.058-4.667-9.058-8.233zm45.648-.37c.572 0 .916-.228.916-.608 0-.495-.573-.647-1.221-.799-.878-.19-1.871-.418-1.871-1.52 0-.913.802-1.522 2.1-1.522 1.335 0 2.099.57 2.099 1.673h-1.145c-.039-.608-.344-.836-.954-.836-.535 0-.84.228-.84.57 0 .533.725.685 1.488.875.802.228 1.603.494 1.603 1.445 0 .95-.801 1.559-2.137 1.559-1.45 0-2.252-.609-2.252-1.75h1.183c-.038.609.344.913 1.031.913zm-29.196-3.498c-.725 0-1.183.684-1.183 1.71 0 1.027.496 1.712 1.221 1.712.725 0 1.183-.647 1.183-1.711 0-1.065-.458-1.711-1.221-1.711zm.267 4.296c-.305 0-.611-.076-.878-.19s-.496-.342-.687-.57v.646h-1.106V0h1.183v2.624a2.11 2.11 0 01.649-.533c.267-.114.534-.19.839-.152 1.298 0 2.099.989 2.099 2.586s-.839 2.623-2.099 2.623zm4.275-4.334c.114-.228.305-.456.572-.57.229-.152.496-.228.802-.228.19 0 .381 0 .572.038v.988c-.153-.038-.343-.038-.496-.038-.954 0-1.336.647-1.336 1.863v2.206h-1.183v-5.02h1.107v.761h-.038zm3.473 1.749c0 1.065.458 1.75 1.259 1.75.801 0 1.298-.685 1.298-1.75 0-1.103-.497-1.749-1.298-1.749s-1.259.646-1.259 1.749zm3.816 0c0 1.597-.992 2.662-2.519 2.662-1.565 0-2.481-1.065-2.481-2.662s.993-2.624 2.519-2.624c1.527 0 2.481 1.027 2.481 2.624zm2.213-.419l1.68-2.09h1.412l-1.947 2.243 2.137 2.775h-1.45l-1.832-2.51v2.51h-1.183V0h1.183v4.144zm5.801-1.368c-.648 0-1.145.418-1.221 1.293h2.404c-.038-.875-.534-1.293-1.183-1.293zm.077-.875c.954 0 1.564.419 1.908 1.027.305.532.382 1.179.382 1.94h-3.588c.038.874.458 1.444 1.259 1.444.229 0 .497-.038.687-.19.191-.152.344-.342.382-.57h1.221c-.267 1.102-1.106 1.635-2.328 1.635-1.641 0-2.48-1.027-2.48-2.662.076-1.483 1.03-2.624 2.557-2.624zm4.465.913c.114-.228.305-.456.572-.57.229-.152.496-.228.802-.228.191 0 .381 0 .572.038v.988c-.152-.038-.343-.038-.496-.038-.954 0-1.336.647-1.336 1.863v2.206h-1.183v-5.02h1.107l-.038.761z" fill="#111"/></svg>